<svg version="1.1" viewBox="0.0 0.0 75.0 50.0" fill="none" stroke="none" stroke-linecap="square" stroke-miterlimit="10" xmlns:xlink="http://www.w3.org/1999/xlink" xmlns="http://www.w3.org/2000/svg"><clipPath id="p.0"><path d="m0 0l75.0 0l0 50.0l-75.0 0l0 -50.0z" clip-rule="nonzero"/></clipPath><g clip-path="url(#p.0)"><path fill="#000000" fill-opacity="0.0" d="m0 0l75.0 0l0 50.0l-75.0 0z" fill-rule="evenodd"/><path fill="#222222" d="m25.007874 -0.007874016l50.015747 0l0 50.015747l-50.015747 0z" fill-rule="evenodd"/><path fill="#222222" d="m0 25.0l0 0c0 -13.811467 11.196406 -25.007874 25.007874 -25.007874l0 0c6.6325016 0 12.993351 2.6347506 17.683239 7.324637c4.689884 4.689886 7.3246346 11.050737 7.3246346 17.683237l0 0c0 13.811466 -11.196407 25.007874 -25.007874 25.007874l0 0c-13.811467 0 -25.007874 -11.196407 -25.007874 -25.007874z" fill-rule="evenodd"/><path fill="#ffffff" d="m-31.535501 25.0l0 0c0 -7.140564 5.7885704 -12.929133 12.929134 -12.929133l0 0c3.429019 0 6.717595 1.3621721 9.142278 3.7868547c2.424683 2.4246826 3.7868557 5.7132587 3.7868557 9.142279l0 0c0 7.140564 -5.7885704 12.929134 -12.929133 12.929134l0 0c-7.140564 0 -12.929134 -5.7885704 -12.929134 -12.929134z" fill-rule="evenodd"/><path fill="#222222" d="m-27.755905 25.0l0 0c0 -5.0531883 4.0964184 -9.149607 9.149607 -9.149607l0 0c2.4266262 0 4.7538643 0.963974 6.4697475 2.6798573c1.7158842 1.7158852 2.6798582 4.0431232 2.6798582 6.4697495l0 0c0 5.0531883 -4.0964184 9.149605 -9.149606 9.149605l0 0c-5.0531883 0 -9.149607 -4.0964165 -9.149607 -9.149605z" fill-rule="evenodd"/><path fill="#ffffff" d="m-22.03923 25.0l0 0c0 -1.8960323 1.5370369 -3.4330711 3.4330711 -3.4330711l0 0c0.9105072 0 1.7837219 0.36169815 2.4275475 1.0055237c0.64382553 0.64382553 1.0055227 1.5170403 1.0055227 2.4275475l0 0c0 1.8960323 -1.5370378 3.4330711 -3.4330702 3.4330711l0 0c-1.8960342 0 -3.4330711 -1.5370388 -3.4330711 -3.4330711z" fill-rule="evenodd"/><path fill="#ffffff" d="m-21.141733 12.706037l0.63518906 -3.7795277l3.8004913 0l0.63518715 3.7795277z" fill-rule="evenodd"/><path fill="#ffffff" d="m-16.070866 37.293964l-0.63518715 3.7795258l-3.8004913 0l-0.63518906 -3.7795258z" fill-rule="evenodd"/><path fill="#ffffff" d="m-13.448269 13.559926l2.7499552 -2.679696l3.0670195 2.2412834l-1.7224865 3.4305382z" fill-rule="evenodd"/><path fill="#ffffff" d="m-23.76433 36.440075l-2.7499542 2.6796951l-3.0670204 -2.2412834l1.7224865 -3.4305382z" fill-rule="evenodd"/><path fill="#ffffff" d="m-7.696569 18.78109l3.7876203 -0.5623226l1.1806653 3.612835l-3.3934822 1.7683849z" fill-rule="evenodd"/><path fill="#ffffff" d="m-29.51603 31.21891l-3.7876205 0.5623226l-1.1806641 -3.612835l3.3934803 -1.7683849z" fill-rule="evenodd"/><path fill="#ffffff" d="m-6.12511 26.349653l3.3929687 1.8014545l-1.1796377 3.6096916l-3.7881339 -0.5922489z" fill-rule="evenodd"/><path fill="#ffffff" d="m-31.087488 23.650347l-3.3929691 -1.8014545l1.1796379 -3.6096916l3.7881336 0.5922489z" fill-rule="evenodd"/><path fill="#ffffff" d="m-27.877237 16.549866l-1.7224865 -3.4305382l3.0670204 -2.2412844l2.7499542 2.679697z" fill-rule="evenodd"/><path fill="#ffffff" d="m-9.335361 33.450134l1.722486 3.4305382l-3.06702 2.2412834l-2.7499542 -2.6796951z" fill-rule="evenodd"/><path fill="#ffffff" d="m29.48308 55.259842l0 0c0 -1.8960304 1.5370369 -3.4330711 3.4330692 -3.4330711l0 0c0.9105072 0 1.7837219 0.36169815 2.4275475 1.0055237c0.64382553 0.64382553 1.0055237 1.5170403 1.0055237 2.4275475l0 0c0 1.8960342 -1.5370369 3.4330711 -3.4330711 3.4330711l0 0c-1.8960323 0 -3.4330692 -1.5370369 -3.4330692 -3.4330711z" fill-rule="evenodd"/><path fill="#ffffff" d="m90.57485 -0.46452165l0 0c0 -2.346123 1.896286 -4.2480316 4.235466 -4.2480316l0 0c1.1233215 0 2.2006302 0.44755888 2.994934 1.2442195c0.7943039 0.7966604 1.2405396 1.8771639 1.2405396 3.0038118l0 0c0 2.346123 -1.896286 4.2480316 -4.2354736 4.2480316l0 0c-2.33918 0 -4.235466 -1.9019086 -4.235466 -4.2480316z" fill-rule="evenodd"/><path fill="#ffffff" d="m91.37008 8.137795l6.8761063 0l0 17.828663l-6.8761063 0z" fill-rule="evenodd"/><path fill="#ffffff" d="m32.83593 13.050373l3.338585 0l0 26.141731l-3.338585 0z" fill-rule="evenodd"/><path fill="#ffffff" d="m31.128315 12.833576l3.370079 -5.5275593l3.370079 5.5275593l-3.370079 5.5275593z" fill-rule="evenodd"/><path fill="#ffffff" d="m50.488827 11.812335l0 2.047244l-31.968502 0l0 -2.047244z" fill-rule="evenodd"/><path fill="#ffffff" d="m28.504583 28.672953l-1.5552654 3.5275593l-13.487894 0l-1.5552654 -3.5275593z" fill-rule="evenodd"/><path fill="#000000" fill-opacity="0.0" d="m13.998171 29.812183l6.2204723 -15.338582l6.2204723 15.338582z" fill-rule="evenodd"/><path stroke="#ffffff" stroke-width="1.3070866141732282" stroke-linejoin="round" stroke-linecap="butt" d="m13.998171 29.812183l6.2204723 -15.338582l6.2204723 15.338582z" fill-rule="evenodd"/><path fill="#ffffff" d="m21.282242 13.050373l0 3.6220474l-2.1417313 0l0 -3.6220474z" fill-rule="evenodd"/><path fill="#ffffff" d="m26.210306 42.693317l1.5552654 -3.5275612l13.487896 0l1.5552635 3.5275612z" fill-rule="evenodd"/><path fill="#ffffff" d="m57.0853 28.672953l-1.5552635 3.5275593l-13.487896 0l-1.5552635 -3.5275593z" fill-rule="evenodd"/><path fill="#000000" fill-opacity="0.0" d="m42.578888 29.812183l6.2204742 -15.338582l6.2204742 15.338582z" fill-rule="evenodd"/><path stroke="#ffffff" stroke-width="1.3070866141732282" stroke-linejoin="round" stroke-linecap="butt" d="m42.578888 29.812183l6.2204742 -15.338582l6.2204742 15.338582z" fill-rule="evenodd"/><path fill="#ffffff" d="m49.86296 13.050373l0 3.6220474l-2.1417313 0l0 -3.6220474z" fill-rule="evenodd"/></g></svg>