<svg version="1.1" viewBox="0.0 0.0 75.0 50.0" fill="none" stroke="none" stroke-linecap="square" stroke-miterlimit="10" xmlns:xlink="http://www.w3.org/1999/xlink" xmlns="http://www.w3.org/2000/svg"><clipPath id="p.0"><path d="m0 0l75.0 0l0 50.0l-75.0 0l0 -50.0z" clip-rule="nonzero"/></clipPath><g clip-path="url(#p.0)"><path fill="#000000" fill-opacity="0.0" d="m0 0l75.0 0l0 50.0l-75.0 0z" fill-rule="evenodd"/><path fill="#222222" d="m25.007874 -0.007874016l50.015747 0l0 50.015747l-50.015747 0z" fill-rule="evenodd"/><path fill="#222222" d="m0 25.0l0 0c0 -13.811467 11.196406 -25.007874 25.007874 -25.007874l0 0c6.6325016 0 12.993351 2.6347506 17.683239 7.324637c4.689884 4.689886 7.3246346 11.050737 7.3246346 17.683237l0 0c0 13.811466 -11.196407 25.007874 -25.007874 25.007874l0 0c-13.811467 0 -25.007874 -11.196407 -25.007874 -25.007874z" fill-rule="evenodd"/><path fill="#ffffff" d="m19.986809 25.0l0 0c0 -7.140564 5.7885704 -12.929133 12.929134 -12.929133l0 0c3.42902 0 6.717594 1.3621721 9.142277 3.7868547c2.4246826 2.4246826 3.7868576 5.7132587 3.7868576 9.142279l0 0c0 7.140564 -5.7885704 12.929134 -12.929134 12.929134l0 0c-7.140564 0 -12.929134 -5.7885704 -12.929134 -12.929134z" fill-rule="evenodd"/><path fill="#222222" d="m23.766405 25.0l0 0c0 -5.0531883 4.0964165 -9.149607 9.149607 -9.149607l0 0c2.4266243 0 4.7538643 0.963974 6.4697456 2.6798573c1.7158852 1.7158852 2.6798592 4.0431232 2.6798592 6.4697495l0 0c0 5.0531883 -4.0964165 9.149605 -9.149605 9.149605l0 0c-5.05319 0 -9.149607 -4.0964165 -9.149607 -9.149605z" fill-rule="evenodd"/><path fill="#ffffff" d="m29.48308 25.0l0 0c0 -1.8960323 1.5370369 -3.4330711 3.4330692 -3.4330711l0 0c0.9105072 0 1.7837219 0.36169815 2.4275475 1.0055237c0.64382553 0.64382553 1.0055237 1.5170403 1.0055237 2.4275475l0 0c0 1.8960323 -1.5370369 3.4330711 -3.4330711 3.4330711l0 0c-1.8960323 0 -3.4330692 -1.5370388 -3.4330692 -3.4330711z" fill-rule="evenodd"/><path fill="#ffffff" d="m30.380577 12.706037l0.63518715 -3.7795277l3.8004932 0l0.63518524 3.7795277z" fill-rule="evenodd"/><path fill="#ffffff" d="m35.451443 37.293964l-0.63518524 3.7795258l-3.8004932 0l-0.63518715 -3.7795258z" fill-rule="evenodd"/><path fill="#ffffff" d="m38.07404 13.559926l2.749958 -2.679696l3.0670166 2.2412834l-1.7224846 3.4305382z" fill-rule="evenodd"/><path fill="#ffffff" d="m27.75798 36.440075l-2.7499542 2.6796951l-3.0670204 -2.2412834l1.7224865 -3.4305382z" fill-rule="evenodd"/><path fill="#ffffff" d="m43.82574 18.78109l3.7876205 -0.5623226l1.1806641 3.612835l-3.3934822 1.7683849z" fill-rule="evenodd"/><path fill="#ffffff" d="m22.00628 31.21891l-3.7876205 0.5623226l-1.180666 -3.612835l3.3934822 -1.7683849z" fill-rule="evenodd"/><path fill="#ffffff" d="m45.3972 26.349653l3.3929672 1.8014545l-1.1796379 3.6096916l-3.7881355 -0.5922489z" fill-rule="evenodd"/><path fill="#ffffff" d="m20.434822 23.650347l-3.3929691 -1.8014545l1.1796379 -3.6096916l3.7881336 0.5922489z" fill-rule="evenodd"/><path fill="#ffffff" d="m23.645071 16.549866l-1.7224846 -3.4305382l3.0670185 -2.2412844l2.7499542 2.679697z" fill-rule="evenodd"/><path fill="#ffffff" d="m42.18695 33.450134l1.7224846 3.4305382l-3.0670204 2.2412834l-2.7499542 -2.6796951z" fill-rule="evenodd"/></g></svg>